<?xml version="1.0" standalone="no"?><!DOCTYPE svg PUBLIC "-//W3C//DTD SVG 1.1//EN" "http://www.w3.org/Graphics/SVG/1.1/DTD/svg11.dtd"><svg class="icon" width="200px" height="199.80px" viewBox="0 0 1025 1024" version="1.1" xmlns="http://www.w3.org/2000/svg"><path d="M326.50939 336.604111q-5.705137-14.262843-19.455981-19.96798t-28.013686 0q-61.73251 25.161118-109.129035 72.557642t-72.557642 109.129035q-5.705137 14.262843 0 28.013686t19.96798 19.455981q7.460564 2.852569 13.677701 2.852569 23.990833 0 34.303966-22.820549 19.455981-47.981667 56.319944-84.84563t84.84563-56.319944q14.262843-6.290279 19.96798-19.96798t0-28.013686zM864.767142 133.120884l26.25826 26.25826-139.410147 138.825005 38.838819 38.838819q10.825132 10.825132 10.825132 25.965689t-10.825132 25.965689l-36.571392 36.571392q50.834235 92.013623 50.834235 196.022663 0 81.70049-31.743969 156.306131t-85.723344 128.585015-128.585015 85.723344-156.306131 31.743969-156.306131-31.743969-128.585015-85.723344-85.723344-128.585015-31.743969-156.306131 31.743969-156.306131 85.723344-128.585015 128.585015-85.723344 156.306131-31.743969q104.00904 0 196.022663 50.834235l36.571392-36.571392q10.825132-10.825132 25.965689-10.825132t25.965689 10.825132l38.838819 38.838819zM869.375138 101.157487q-5.705137 5.705137-12.580559 5.705137-7.460564 0-13.165701-5.705137l-52.00452-51.419378q-5.119995-5.705137-5.119995-13.165701t5.119995-13.165701q5.705137-5.119995 13.165701-5.119995t13.165701 5.119995l51.419378 52.00452q5.705137 5.119995 5.705137 12.87313t-5.705137 12.87313zM1000.812721 232.595071q-6.290279 5.119995-13.165701 5.119995t-13.165701-5.119995l-51.419378-52.00452q-5.705137-5.119995-5.705137-12.87313t5.705137-12.87313q5.119995-5.705137 12.87313-5.705137t12.87313 5.705137l52.00452 51.419378q5.119995 5.705137 5.119995 13.165701t-5.119995 13.165701zM1024.218412 128.000889q0 7.972564-5.119995 13.165701t-13.165701 5.119995l-54.857088 0q-7.972564 0-13.165701-5.119995t-5.119995-13.165701 5.119995-13.165701 13.165701-5.119995l54.857088 0q7.972564 0 13.165701 5.119995t5.119995 13.165701zM914.504236 18.286712l0 54.857088q0 7.972564-5.119995 13.165701t-13.165701 5.119995-13.165701-5.119995-5.119995-13.165701l0-54.857088q0-7.972564 5.119995-13.165701t13.165701-5.119995 13.165701 5.119995 5.119995 13.165701zM1000.812721 49.738109l-52.00452 51.419378q-5.705137 5.705137-12.580559 5.705137-7.460564 0-13.165701-5.705137-5.705137-5.119995-5.705137-12.87313t5.705137-12.87313l51.419378-52.00452q5.705137-5.119995 13.165701-5.119995t13.165701 5.119995q5.119995 5.705137 5.119995 13.165701t-5.119995 13.165701z" fill="#444444" /></svg>